<mxfile host="app.diagrams.net" modified="2023-06-30T00:43:59.578Z" agent="Mozilla/5.0 (X11; Linux x86_64) AppleWebKit/537.36 (KHTML, like Gecko) Chrome/97.0.4692.99 Safari/537.36" version="21.5.0" etag="-qleVaBsKMRYgmLaAct-" type="device">
  <diagram id="xxGH3RkjGrt-0E_2bFbj" name="Page-1">
    <mxGraphModel dx="1139" dy="645" grid="1" gridSize="10" guides="1" tooltips="1" connect="1" arrows="1" fold="1" page="1" pageScale="1" pageWidth="850" pageHeight="1100" math="0" shadow="0">
      <root>
        <mxCell id="0" />
        <mxCell id="1" parent="0" />
        <mxCell id="smdLf3gsNbxKxfawQnFj-7" style="edgeStyle=orthogonalEdgeStyle;rounded=0;orthogonalLoop=1;jettySize=auto;html=1;exitX=1;exitY=0.25;exitDx=0;exitDy=0;entryX=0.5;entryY=1;entryDx=0;entryDy=0;entryPerimeter=0;" edge="1" parent="1" source="smdLf3gsNbxKxfawQnFj-1" target="smdLf3gsNbxKxfawQnFj-9">
          <mxGeometry relative="1" as="geometry">
            <mxPoint x="450" y="350" as="targetPoint" />
          </mxGeometry>
        </mxCell>
        <mxCell id="smdLf3gsNbxKxfawQnFj-11" value="get task by id&lt;br&gt;(select * from tasks where id = &amp;lt;id&amp;gt;)" style="edgeLabel;html=1;align=center;verticalAlign=middle;resizable=0;points=[];" vertex="1" connectable="0" parent="smdLf3gsNbxKxfawQnFj-7">
          <mxGeometry x="-0.6264" y="2" relative="1" as="geometry">
            <mxPoint x="100" y="-28" as="offset" />
          </mxGeometry>
        </mxCell>
        <mxCell id="smdLf3gsNbxKxfawQnFj-8" style="edgeStyle=orthogonalEdgeStyle;rounded=0;orthogonalLoop=1;jettySize=auto;html=1;exitX=1;exitY=0.75;exitDx=0;exitDy=0;entryX=1;entryY=0.5;entryDx=0;entryDy=0;entryPerimeter=0;" edge="1" parent="1" source="smdLf3gsNbxKxfawQnFj-1" target="smdLf3gsNbxKxfawQnFj-9">
          <mxGeometry relative="1" as="geometry">
            <mxPoint x="450" y="390" as="targetPoint" />
          </mxGeometry>
        </mxCell>
        <mxCell id="smdLf3gsNbxKxfawQnFj-1" value="fast-api&amp;nbsp; endoint" style="rounded=1;whiteSpace=wrap;html=1;" vertex="1" parent="1">
          <mxGeometry x="145" y="340" width="120" height="80" as="geometry" />
        </mxCell>
        <mxCell id="smdLf3gsNbxKxfawQnFj-5" style="edgeStyle=orthogonalEdgeStyle;rounded=0;orthogonalLoop=1;jettySize=auto;html=1;entryX=0;entryY=0.5;entryDx=0;entryDy=0;entryPerimeter=0;" edge="1" parent="1" source="smdLf3gsNbxKxfawQnFj-2" target="smdLf3gsNbxKxfawQnFj-9">
          <mxGeometry relative="1" as="geometry">
            <mxPoint x="520" y="160" as="targetPoint" />
          </mxGeometry>
        </mxCell>
        <mxCell id="smdLf3gsNbxKxfawQnFj-2" value="Task-scheduler&lt;br&gt;(tasks executor)" style="rounded=1;whiteSpace=wrap;html=1;" vertex="1" parent="1">
          <mxGeometry x="150" y="210" width="120" height="60" as="geometry" />
        </mxCell>
        <mxCell id="smdLf3gsNbxKxfawQnFj-4" value="page-parser app" style="text;html=1;align=center;verticalAlign=middle;resizable=0;points=[];autosize=1;strokeColor=none;fillColor=none;" vertex="1" parent="1">
          <mxGeometry x="150" y="170" width="110" height="30" as="geometry" />
        </mxCell>
        <mxCell id="smdLf3gsNbxKxfawQnFj-9" value="Postgres&lt;br&gt;db" style="shape=cylinder3;whiteSpace=wrap;html=1;boundedLbl=1;backgroundOutline=1;size=15;" vertex="1" parent="1">
          <mxGeometry x="610" y="200" width="60" height="80" as="geometry" />
        </mxCell>
        <mxCell id="smdLf3gsNbxKxfawQnFj-12" value="create new task" style="edgeLabel;html=1;align=center;verticalAlign=middle;resizable=0;points=[];" vertex="1" connectable="0" parent="1">
          <mxGeometry x="460" y="410" as="geometry">
            <mxPoint x="-14" y="2" as="offset" />
          </mxGeometry>
        </mxCell>
        <mxCell id="smdLf3gsNbxKxfawQnFj-15" value="&lt;div style=&quot;text-align: center;&quot;&gt;&lt;span style=&quot;font-size: 11px; background-color: rgb(255, 255, 255);&quot;&gt;(insert into tasks (...) values (...)&lt;/span&gt;&lt;/div&gt;&lt;div style=&quot;text-align: center;&quot;&gt;&lt;span style=&quot;font-size: 11px; background-color: rgb(255, 255, 255);&quot;&gt;&lt;br&gt;&lt;/span&gt;&lt;/div&gt;" style="text;whiteSpace=wrap;html=1;" vertex="1" parent="1">
          <mxGeometry x="370" y="410" width="210" height="40" as="geometry" />
        </mxCell>
        <mxCell id="smdLf3gsNbxKxfawQnFj-16" value="&lt;font style=&quot;font-size: 9px;&quot;&gt;get tasks for execution&lt;br&gt;&lt;/font&gt;" style="text;html=1;align=center;verticalAlign=middle;resizable=0;points=[];autosize=1;strokeColor=none;fillColor=none;" vertex="1" parent="1">
          <mxGeometry x="390" y="205" width="110" height="30" as="geometry" />
        </mxCell>
        <mxCell id="smdLf3gsNbxKxfawQnFj-17" value="" style="rounded=1;whiteSpace=wrap;html=1;fillColor=none;" vertex="1" parent="1">
          <mxGeometry x="50" y="110" width="680" height="410" as="geometry" />
        </mxCell>
        <mxCell id="smdLf3gsNbxKxfawQnFj-21" value="docker compose" style="text;html=1;align=center;verticalAlign=middle;resizable=0;points=[];autosize=1;strokeColor=none;fillColor=none;" vertex="1" parent="1">
          <mxGeometry x="80" y="70" width="110" height="30" as="geometry" />
        </mxCell>
        <mxCell id="smdLf3gsNbxKxfawQnFj-26" style="edgeStyle=orthogonalEdgeStyle;rounded=0;orthogonalLoop=1;jettySize=auto;html=1;exitX=0.5;exitY=0.5;exitDx=0;exitDy=0;exitPerimeter=0;entryX=0;entryY=0.5;entryDx=0;entryDy=0;" edge="1" parent="1" source="smdLf3gsNbxKxfawQnFj-23" target="smdLf3gsNbxKxfawQnFj-1">
          <mxGeometry relative="1" as="geometry" />
        </mxCell>
        <mxCell id="smdLf3gsNbxKxfawQnFj-23" value="Actor" style="shape=umlActor;verticalLabelPosition=bottom;verticalAlign=top;html=1;outlineConnect=0;" vertex="1" parent="1">
          <mxGeometry x="70" y="365" width="20" height="30" as="geometry" />
        </mxCell>
      </root>
    </mxGraphModel>
  </diagram>
</mxfile>
